<?xml version="1.0" standalone="no"?><!DOCTYPE svg PUBLIC "-//W3C//DTD SVG 1.1//EN" "http://www.w3.org/Graphics/SVG/1.1/DTD/svg11.dtd"><svg t="1757131827615" class="icon" viewBox="0 0 1024 1024" version="1.1" xmlns="http://www.w3.org/2000/svg" p-id="13109" width="128" height="128" xmlns:xlink="http://www.w3.org/1999/xlink"><path d="M472.64 119.466667a135.872 135.872 0 0 1 133.013333 108.245333h73.664a116.138667 116.138667 0 0 1 116.053334 111.786667l0.085333 4.373333v85.909333a135.893333 135.893333 0 0 1 0 261.205334v85.930666a116.138667 116.138667 0 0 1-111.786667 116.053334l-4.352 0.064h-99.370666a37.397333 37.397333 0 0 1-37.397334-37.397334l0.042667-0.981333h-0.085333a80.704 80.704 0 0 0-161.301334-4.032l-0.106666 4.053333c-0.106667 0.298667-0.106667 0.64-0.106667 0.96 0 19.669333-15.189333 35.797333-34.474667 37.290667l-2.922666 0.106667h-97.322667a116.138667 116.138667 0 0 1-116.053333-111.786667l-0.085334-4.330667v-98.432a37.461333 37.461333 0 0 1 17.237334-31.509333 37.44 37.44 0 0 1 20.16-5.888 80.704 80.704 0 0 0 4.032-161.301333l-2.666667-0.042667-1.365333 0.021333A37.397333 37.397333 0 0 1 130.133333 442.282667v-98.410667a116.138667 116.138667 0 0 1 111.786667-116.053333l4.352-0.085334h93.333333A135.872 135.872 0 0 1 472.64 119.466667z m278.997333 379.349333l-1.664-0.32a37.12 37.12 0 0 1-23.573333-16.597333 37.546667 37.546667 0 0 1-5.632-17.002667l-0.128-2.922667v-118.101333a41.344 41.344 0 0 0-38.378667-41.237333l-2.944-0.106667h-106.666666c-20.330667 0-36.864-16.213333-37.397334-36.394667a37.546667 37.546667 0 0 1-1.493333-7.936l-0.106667-2.922666a61.013333 61.013333 0 0 0-121.941333-3.456l-0.106667 3.456c0 3.84-0.576 7.530667-1.642666 11.008l0.021333-1.152c0 19.669333-15.189333 35.797333-34.474667 37.290666l-2.922666 0.106667h-126.314667a41.344 41.344 0 0 0-41.237333 38.4l-0.106667 2.944v65.536a155.562667 155.562667 0 0 1 0 301.952v65.557333c0 21.824 16.938667 39.701333 38.4 41.216l2.944 0.106667h64.32a155.562667 155.562667 0 0 1 302.442667 0h66.282666a41.344 41.344 0 0 0 41.237334-38.4l0.085333-2.922667V658.773333l0.064-1.578666 0.085333-1.664a37.461333 37.461333 0 0 1 0.704-4.672l-0.213333 1.152a37.162667 37.162667 0 0 1 15.189333-23.765334 37.418667 37.418667 0 0 1 18.666667-6.741333l2.922667-0.128a61.013333 61.013333 0 0 0 3.456-121.941333l-3.456-0.085334c-2.197333 0-4.330667-0.213333-6.421334-0.554666z" fill="#0061b0" p-id="13110"></path></svg>